<svg width="48" height="48" viewBox="0 0 48 48" fill="none" xmlns="http://www.w3.org/2000/svg">
<ellipse cx="24" cy="45" rx="6" ry="1" fill="black" fill-opacity="0.3"/>
<path d="M24 45L15.3397 32.25L32.6603 32.25L24 45Z" fill="#3A7AF6"/>
<circle cx="24" cy="21" r="19" fill="#3A7AF6"/>
<path d="M34.6066 31.6066C36.7044 29.5088 38.133 26.8361 38.7118 23.9264C39.2906 21.0166 38.9935 18.0006 37.8582 15.2597C36.7229 12.5189 34.8003 10.1762 32.3336 8.52796C29.8668 6.87973 26.9667 6 24 6C21.0333 6 18.1332 6.87973 15.6664 8.52796C13.1997 10.1762 11.2771 12.5189 10.1418 15.2597C9.00649 18.0006 8.70944 21.0166 9.28822 23.9264C9.867 26.8361 11.2956 29.5088 13.3934 31.6066L16.0422 28.9578C14.4683 27.3839 13.3965 25.3786 12.9623 23.1955C12.528 21.0125 12.7509 18.7497 13.6027 16.6933C14.4545 14.6369 15.8969 12.8793 17.7476 11.6427C19.5983 10.4061 21.7742 9.74602 24 9.74602C26.2258 9.74602 28.4017 10.4061 30.2524 11.6427C32.1031 12.8793 33.5455 14.6369 34.3973 16.6933C35.2491 18.7497 35.472 21.0125 35.0377 23.1955C34.6035 25.3786 33.5317 27.3839 31.9578 28.9578L34.6066 31.6066Z" fill="white"/>
<path d="M25.2578 27H23V18.2969L20.3047 19.1328V17.2969L25.0156 15.6094H25.2578V27Z" fill="white"/>
</svg>
