<svg width="48" height="48" viewBox="0 0 48 48" fill="none" xmlns="http://www.w3.org/2000/svg">
<ellipse cx="24" cy="45" rx="6" ry="1" fill="black" fill-opacity="0.3"/>
<path d="M24 45L15.3397 32.25L32.6603 32.25L24 45Z" fill="#BFC5CE"/>
<circle cx="24" cy="21" r="19" fill="#BFC5CE"/>
<path d="M13.3934 31.6066C12.0005 30.2137 10.8956 28.5601 10.1418 26.7403C9.38799 24.9204 9 22.9698 9 21H12.746C12.746 22.4779 13.0371 23.9413 13.6027 25.3067C14.1682 26.6721 14.9972 27.9127 16.0422 28.9578L13.3934 31.6066Z" fill="#8E97A4"/>
<path d="M13.3934 31.6066C12.0005 30.2137 10.8956 28.5601 10.1418 26.7403C9.38799 24.9204 9 22.9698 9 21H12.746C12.746 22.4779 13.0371 23.9413 13.6027 25.3067C14.1682 26.6721 14.9972 27.9127 16.0422 28.9578L13.3934 31.6066Z" fill="#8E97A4"/>
<path d="M13.3934 31.6066C12.0005 30.2137 10.8956 28.5601 10.1418 26.7403C9.38799 24.9204 9 22.9698 9 21H12.746C12.746 22.4779 13.0371 23.9413 13.6027 25.3067C14.1682 26.6721 14.9972 27.9127 16.0422 28.9578L13.3934 31.6066Z" fill="#8E97A4"/>
<path d="M9 21C9 17.0218 10.5804 13.2064 13.3934 10.3934L16.0422 13.0422C13.9317 15.1528 12.746 18.0153 12.746 21H9Z" fill="#8E97A4"/>
<path d="M13.3934 10.3934C16.2064 7.58035 20.0218 6 24 6V9.74602C21.0153 9.74602 18.1528 10.9317 16.0422 13.0422L13.3934 10.3934Z" fill="#8E97A4"/>
<path d="M24 6C27.9782 6 31.7936 7.58035 34.6066 10.3934L31.9578 13.0422C29.8472 10.9317 26.9847 9.74602 24 9.74602V6Z" fill="#8E97A4"/>
<path d="M34.6066 10.3934C37.4196 13.2064 39 17.0218 39 21H35.254C35.254 18.0153 34.0683 15.1528 31.9578 13.0422L34.6066 10.3934Z" fill="#8E97A4"/>
<path d="M39 21C39 24.9782 37.4196 28.7936 34.6066 31.6066L31.9578 28.9578C34.0683 26.8472 35.254 23.9847 35.254 21H39Z" fill="#8E97A4"/>
<path d="M27.4297 22.2969C27.4297 23.8698 27.1042 25.0729 26.4531 25.9062C25.8021 26.7396 24.849 27.1562 23.5938 27.1562C22.3542 27.1562 21.4062 26.7474 20.75 25.9297C20.0938 25.112 19.7578 23.9401 19.7422 22.4141V20.3203C19.7422 18.7318 20.0703 17.526 20.7266 16.7031C21.388 15.8802 22.3385 15.4688 23.5781 15.4688C24.8177 15.4688 25.7656 15.8776 26.4219 16.6953C27.0781 17.5078 27.4141 18.6771 27.4297 20.2031V22.2969ZM25.1719 20C25.1719 19.0573 25.0417 18.3724 24.7812 17.9453C24.526 17.513 24.125 17.2969 23.5781 17.2969C23.0469 17.2969 22.6536 17.5026 22.3984 17.9141C22.1484 18.3203 22.0156 18.9583 22 19.8281V22.5938C22 23.5208 22.125 24.2109 22.375 24.6641C22.6302 25.112 23.0365 25.3359 23.5938 25.3359C24.1458 25.3359 24.5443 25.1198 24.7891 24.6875C25.0339 24.2552 25.1615 23.5938 25.1719 22.7031V20Z" fill="#8E97A4"/>
<rect width="5" height="2" transform="matrix(-4.37114e-08 -1 -1 4.37114e-08 24.9997 9.99976)" fill="#BFC5CE"/>
<rect width="5" height="2" transform="matrix(-0.707107 -0.707107 -0.707107 0.707107 16.9286 12.5145)" fill="#BFC5CE"/>
<rect width="5" height="2" transform="matrix(-1 -8.74228e-08 -8.74228e-08 1 12.9998 19.9998)" fill="#BFC5CE"/>
<rect x="31.0709" y="12.5145" width="5" height="2" transform="rotate(-45 31.0709 12.5145)" fill="#BFC5CE"/>
<rect x="34.9998" y="19.9998" width="5" height="2" fill="#BFC5CE"/>
</svg>
