<svg width="48" height="48" viewBox="0 0 48 48" fill="none" xmlns="http://www.w3.org/2000/svg">
<ellipse cx="24" cy="45" rx="6" ry="1" fill="black" fill-opacity="0.3"/>
<path d="M24 45L15.3397 32.25L32.6603 32.25L24 45Z" fill="#99BEF8"/>
<circle cx="24" cy="21" r="19" fill="#99BEF8"/>
<path d="M13.3934 31.6066C11.4141 29.6273 10.0281 27.1336 9.39218 24.4076L13.0403 23.5566C13.5174 25.6018 14.5572 27.4727 16.0422 28.9578L13.3934 31.6066Z" fill="#0F296B"/>
<path d="M9.16291 23.2047C8.69504 20.0561 9.24095 16.8403 10.7217 14.0225L14.0377 15.765C12.9268 17.8791 12.5172 20.2918 12.8682 22.6541L9.16291 23.2047Z" fill="#0F296B"/>
<path d="M11.2037 13.1735C12.8646 10.458 15.3463 8.3412 18.2898 7.12942L19.7158 10.5934C17.5074 11.5025 15.6455 13.0907 14.3994 15.128L11.2037 13.1735Z" fill="#0F296B"/>
<path d="M19.3489 6.7393C22.3752 5.75229 25.637 5.7536 28.6625 6.74305L27.4981 10.3035C25.2282 9.56115 22.781 9.56017 20.5105 10.3007L19.3489 6.7393Z" fill="#0F296B"/>
<path d="M29.6512 7.10526C32.5998 8.30451 35.0905 10.4107 36.7629 13.1191L33.5756 15.0873C32.3208 13.0552 30.4522 11.475 28.2399 10.5753L29.6512 7.10526Z" fill="#0F296B"/>
<path d="M37.3657 14.1914C38.8106 17.0278 39.3157 20.2503 38.8079 23.3927L35.1099 22.7951C35.4908 20.4375 35.1119 18.0198 34.0279 15.8918L37.3657 14.1914Z" fill="#0F296B"/>
<path d="M38.5953 24.4608C37.9395 27.2264 36.5115 29.7488 34.4775 31.7342L31.8609 29.0535C33.3869 27.5639 34.4584 25.6715 34.9504 23.5965L38.5953 24.4608Z" fill="white"/>
<path d="M25.8984 15.5078V17.3672H25.6797C24.6589 17.3828 23.8359 17.6484 23.2109 18.1641C22.5911 18.6797 22.2188 19.3958 22.0938 20.3125C22.6979 19.6979 23.4609 19.3906 24.3828 19.3906C25.3724 19.3906 26.1589 19.7448 26.7422 20.4531C27.3255 21.1615 27.6172 22.0938 27.6172 23.25C27.6172 23.9896 27.4557 24.6589 27.1328 25.2578C26.8151 25.8568 26.362 26.3229 25.7734 26.6562C25.1901 26.9896 24.5286 27.1562 23.7891 27.1562C22.5911 27.1562 21.6224 26.7396 20.8828 25.9062C20.1484 25.0729 19.7812 23.9609 19.7812 22.5703V21.7578C19.7812 20.5234 20.013 19.4349 20.4766 18.4922C20.9453 17.5443 21.6146 16.8125 22.4844 16.2969C23.3594 15.776 24.3724 15.513 25.5234 15.5078H25.8984ZM23.6953 21.2031C23.3307 21.2031 23 21.2995 22.7031 21.4922C22.4062 21.6797 22.1875 21.9297 22.0469 22.2422V22.9297C22.0469 23.6849 22.1953 24.276 22.4922 24.7031C22.7891 25.125 23.2057 25.3359 23.7422 25.3359C24.2266 25.3359 24.6172 25.1458 24.9141 24.7656C25.2161 24.3802 25.3672 23.8828 25.3672 23.2734C25.3672 22.6536 25.2161 22.1536 24.9141 21.7734C24.612 21.3932 24.2057 21.2031 23.6953 21.2031Z" fill="#0F296B"/>
<rect width="5" height="2" transform="matrix(-0.34202 -0.939693 -0.939693 0.34202 21.1774 10.321)" fill="#99BEF8"/>
<rect width="5" height="2" transform="matrix(-0.866025 -0.5 -0.5 0.866025 15.3509 15.0459)" fill="#99BEF8"/>
<rect width="5" height="2" transform="matrix(-0.984808 0.173648 0.173648 0.984808 13.008 22.1932)" fill="#99BEF8"/>
<rect x="26.8517" y="10.321" width="5" height="2" transform="rotate(-70 26.8517 10.321)" fill="#99BEF8"/>
<rect x="32.6782" y="15.0459" width="5" height="2" transform="rotate(-30 32.6782 15.0459)" fill="#99BEF8"/>
<rect x="35.021" y="22.1932" width="5" height="2" transform="rotate(10 35.021 22.1932)" fill="#99BEF8"/>
</svg>
